<?xml version="1.0" standalone="no"?>
<!DOCTYPE svg PUBLIC "-//W3C//DTD SVG 1.1//EN" "http://www.w3.org/Graphics/SVG/1.1/DTD/svg11.dtd" >
<svg xmlns="http://www.w3.org/2000/svg">
<metadata>Generated by IcoMoon</metadata>
<defs>
<font id="icon-font-linear" horiz-adv-x="1024">
<font-face units-per-em="1024" ascent="960" descent="-64" />
<missing-glyph horiz-adv-x="1024" />
<glyph unicode="&#x20;" d="" horiz-adv-x="512" />
<glyph unicode="&#xe600;" d="M204.8 844.8v-819.2l709.453 409.549-709.453 409.651zM230.4 800.461l632.653-365.312-632.653-365.235v730.547z" />
<glyph unicode="&#xe601;" d="M204.8 844.8v-819.2h230.4v819.2h-230.4zM409.6 51.2h-179.2v768h179.2v-768zM588.8 844.8v-819.2h230.4v819.2h-230.4zM793.6 51.2h-179.2v768h179.2v-768z" />
<glyph unicode="&#xe602;" d="M921.6 448h-396.8v396.8h-25.6v-396.8h-396.8v-25.6h396.8v-396.8h25.6v396.8h396.8z" />
<glyph unicode="&#xe603;" d="M357.606 102.4l-254.054 339.123 20.506 15.36 235.136-313.933 543.642 617.498 19.2-16.896z" />
<glyph unicode="&#xe604;" d="M921.446 43.853l-307.866 307.84c48.051 52.403 77.619 122.010 77.619 198.707 0 162.586-131.814 294.4-294.4 294.4s-294.4-131.814-294.4-294.4 131.814-294.4 294.4-294.4c76.672 0 146.278 29.568 198.682 77.594l307.866-307.84 18.099 18.099zM128 550.4c0 148.454 120.346 268.8 268.8 268.8s268.8-120.346 268.8-268.8-120.346-268.8-268.8-268.8-268.8 120.346-268.8 268.8z" />
<glyph unicode="&#xe605;" d="M665.6 640v153.6h-307.2v-153.6h-256v-512h819.2v512h-256zM384 768h256v-128h-256v128zM896 153.6h-768v460.8h768v-460.8zM460.8 358.4h-76.8v-76.8h-76.8v76.8h-76.8v76.8h76.8v76.8h76.8v-76.8h76.8v-76.8z" />
<glyph unicode="&#xe606;" d="M460.8 844.8v-384h179.2v-102.4l102.4 102.4h179.2v384h-460.8zM896 486.4h-164.813l-65.587-66.202v66.202h-179.2v332.8h409.6v-332.8zM435.2 614.4h-332.8v-384h179.2l102.4-102.4v102.4h179.2v204.8h-25.6v-179.2h-179.2v-66.202l-65.587 66.202h-164.813v332.8h307.2v25.6z" />
<glyph unicode="&#xe607;" d="M804.429 692.71h-30.95c1.894-42.88-52.25-92.698-52.25-92.698 24.346-25.498 58.035-34.765 58.035-34.765l-11.622-17.408c-20.122 1.92-61.926 36.71-61.926 36.71-28.237-26.65-79.309-50.227-79.309-50.227l-17.408 19.328c30.541 4.25 79.309 46.362 79.309 46.362-24.755 17.741-44.493 63.744-44.493 63.744h30.95c12.006-27.443 32.896-50.253 32.896-50.253 43.725 45.21 36.762 79.206 36.762 79.206h-145.101v23.168h89.011v23.168h27.11v-23.168h89.011v-23.168zM921.6 844.8v-384h-168.525l-113.075-102.4v102.4h-179.2v384h460.8zM896 819.2h-409.6v-332.8h179.2v-66.202l76.262 66.202h154.138v332.8zM381.184 356.608h29.747l-50.662 157.21h-31.514l-52.71-157.21h28.851l11.238 37.862h54.042l11.008-37.862zM322.202 416.512l21.632 73.421h0.461l19.789-73.421h-41.882zM435.2 614.4h-332.8v-384h189.875l91.725-102.4v102.4h179.2v204.8h-25.6v-179.2h-179.2v-66.202l-54.938 66.202h-175.462v332.8h307.2v25.6z" />
<glyph unicode="&#xe608;" d="M230.4 742.4v-614.4h563.2v614.4h-563.2zM768 153.6h-512v563.2h512v-563.2zM204.8 179.2l-102.4-25.6v563.2l102.4-25.6v-26.394l-76.8 19.2v-497.613l76.8 19.2v-26.394zM76.8 204.8l-76.8-25.6v512l76.8-25.6v-26.982l-51.2 17.075v-441.011l51.2 17.075v-26.957zM819.2 205.594l76.8-19.2v497.613l-76.8-19.2v26.394l102.4 25.6v-563.2l-102.4 25.6v26.394zM947.2 231.782l51.2-17.075v440.986l-51.2-17.075v26.982l76.8 25.6v-512l-76.8 25.6v26.982z" />
<glyph unicode="&#xe609;" d="M204.8 179.2l-204.8-51.2v614.4l204.8-51.2v-26.394l-179.2 44.8v-548.813l179.2 44.8v-26.394zM819.2 179.2l204.8-51.2v614.4l-204.8-51.2v-26.394l179.2 44.8v-548.813l-179.2 44.8v-26.394zM230.4 742.4v-614.4h138.24l3.277 25.6h-115.917v563.2h512v-563.2h-115.917l3.277-25.6h138.24v614.4h-563.2zM621.005 194.97l17.766-139.059-126.771 59.878-126.771-59.878 17.766 139.059-96.102 102.067 137.754 26.086 67.354 122.931 67.354-122.931 137.754-26.086-96.102-102.067zM607.462 99.021l-13.056 104.576 72.038 76.979-103.245 20.224-51.2 92.006-50.79-91.597-103.654-20.634 71.654-76.979-12.646-104.576 95.053 44.57 95.846-44.57z" />
<glyph unicode="&#xe60a;" d="M102.4 742.4v-614.4h819.2v614.4h-819.2zM896 153.6h-768v435.2h768v-435.2zM896 614.4h-768v102.4h768v-102.4zM870.4 665.6c0-14.157-11.443-25.6-25.6-25.6s-25.6 11.443-25.6 25.6 11.443 25.6 25.6 25.6 25.6-11.443 25.6-25.6zM793.6 665.6c0-14.157-11.443-25.6-25.6-25.6s-25.6 11.443-25.6 25.6 11.443 25.6 25.6 25.6 25.6-11.443 25.6-25.6zM716.8 665.6c0-14.157-11.443-25.6-25.6-25.6s-25.6 11.443-25.6 25.6 11.443 25.6 25.6 25.6 25.6-11.443 25.6-25.6zM435.2 486.4v-230.426l199.552 115.226-199.552 115.2zM460.8 299.187v144.026l124.723-72.013-124.723-72.013z" />
<glyph unicode="&#xe60b;" d="M102.4 742.4v-614.4h819.2v614.4h-819.2zM896 153.6h-768v563.2h768v-563.2zM409.6 588.8v-313.267l271.309 156.621-271.309 156.646zM435.2 544.461l194.509-112.307-194.509-112.282v224.589z" />
<glyph unicode="&#xe60c;" d="M204.8 844.8v-819.2h614.4v819.2h-614.4zM793.6 51.2h-563.2v768h563.2v-768zM640 793.6h128v-128l-128 128zM332.8 588.8h-51.2v25.6h51.2v-25.6zM665.6 588.8h-307.2v25.6h307.2v-25.6zM332.8 512h-51.2v25.6h51.2v-25.6zM665.6 512h-307.2v25.6h307.2v-25.6zM332.8 435.2h-51.2v25.6h51.2v-25.6zM665.6 435.2h-307.2v25.6h307.2v-25.6zM332.8 358.4h-51.2v25.6h51.2v-25.6zM665.6 358.4h-307.2v25.6h307.2v-25.6zM332.8 281.6h-51.2v25.6h51.2v-25.6zM665.6 281.6h-307.2v25.6h307.2v-25.6z" />
<glyph unicode="&#xe60d;" d="M179.2 691.2v-665.6h537.6v665.6h-537.6zM691.2 51.2h-486.4v614.4h486.4v-614.4zM563.2 640h102.4v-102.4l-102.4 102.4zM716.8 793.6h102.4v-102.4l-102.4 102.4zM563.2 486.4h-307.2v25.6h307.2v-25.6zM563.2 409.6h-307.2v25.6h307.2v-25.6zM563.2 332.8h-307.2v25.6h307.2v-25.6zM563.2 256h-307.2v25.6h307.2v-25.6zM563.2 179.2h-307.2v25.6h307.2v-25.6zM870.4 844.8v-665.6h-153.6v25.6h128v614.4h-486.4v-128h-25.6v153.6h537.6z" />
<glyph unicode="&#xe60e;" d="M588.8 640v-256h230.4v256h-230.4zM793.6 409.6h-179.2v204.8h179.2v-204.8zM358.4 640h179.2v-25.6h-179.2v25.6zM486.4 768v-76.8h332.8v76.8h-332.8zM793.6 716.8h-281.6v25.6h281.6v-25.6zM358.4 563.2h179.2v-25.6h-179.2v25.6zM358.4 486.4h179.2v-25.6h-179.2v25.6zM358.4 409.6h179.2v-25.6h-179.2v25.6zM358.4 332.8h460.8v-25.6h-460.8v25.6zM358.4 256h460.8v-25.6h-460.8v25.6zM358.4 179.2h460.8v-25.6h-460.8v25.6zM358.4 768v-76.8h76.8v76.8h-76.8zM409.6 716.8h-25.574v25.574h25.574v-25.574zM281.6 844.8v-69.658l-102.144-14.182 13.158-94.643-90.214-26.317 179.2-614.4h614.4v819.2h-614.4zM281.6 749.286v-537.574l-73.267 527.386 73.267 10.189zM134.118 622.592l62.029 18.099 61.21-440.576-123.238 422.477zM870.4 51.2h-563.2v768h563.2v-768z" />
<glyph unicode="&#xe60f;" d="M716.8 486.4h-204.8v25.6h204.8v-25.6zM716.8 358.4h-204.8v-25.6h204.8v25.6zM716.8 204.8h-204.8v-25.6h204.8v25.6zM486.4 558.080l-19.61 16.461-83.482-99.482-50.816 60.544-19.61-16.461 70.451-83.942 103.066 122.88zM486.4 404.48l-19.61 16.461-83.482-99.482-50.816 60.544-19.61-16.461 70.451-83.942 103.066 122.88zM486.4 250.88l-19.61 16.461-83.482-99.482-50.816 60.544-19.61-16.461 70.451-83.942 103.066 122.88zM768 51.2h-512v614.4h76.8v-51.2h358.4v51.2h76.8v-614.4zM665.6 640h-307.2v76.8c0 14.106 11.469 25.6 25.6 25.6h76.8v51.2c0 14.106 11.469 25.6 25.6 25.6h51.2c14.131 0 25.6-11.494 25.6-25.6v-51.2h76.8c14.131 0 25.6-11.494 25.6-25.6v-76.8zM691.2 691.2v25.6c0 28.262-22.938 51.2-51.2 51.2h-51.2v25.6c0 28.262-22.938 51.2-51.2 51.2h-51.2c-28.262 0-51.2-22.938-51.2-51.2v-25.6h-51.2c-28.262 0-51.2-22.938-51.2-51.2v-25.6h-102.4v-665.6h563.2v665.6h-102.4zM537.6 793.6h-51.2v-51.2h51.2v51.2z" />
<glyph unicode="&#xe610;" d="M204.8 844.8v-179.2h-25.6c-14.131 0-25.6-11.469-25.6-25.6v-25.6c0-14.131 11.469-25.6 25.6-25.6h25.6v-102.4h-25.6c-14.131 0-25.6-11.469-25.6-25.6v-25.6c0-14.157 11.469-25.6 25.6-25.6h25.6v-102.4h-25.6c-14.131 0-25.6-11.443-25.6-25.6v-25.6c0-14.157 11.469-25.6 25.6-25.6h25.6v-204.8h614.4v819.2h-614.4zM179.2 614.4v25.6h76.8v-25.6h-76.8zM179.2 435.2v25.6h76.8v-25.6h-76.8zM179.2 256v25.6h76.8v-25.6h-76.8zM793.6 51.2h-563.2v179.2h25.6c14.131 0 25.6 11.443 25.6 25.6v25.6c0 14.157-11.469 25.6-25.6 25.6h-25.6v102.4h25.6c14.131 0 25.6 11.443 25.6 25.6v25.6c0 14.131-11.469 25.6-25.6 25.6h-25.6v102.4h25.6c14.131 0 25.6 11.469 25.6 25.6v25.6c0 14.131-11.469 25.6-25.6 25.6h-25.6v153.6h563.2v-768zM610.074 395.008c-4.173 10.906-8.346 29.773-4.582 55.398 21.478 28.518 35.123 67.354 35.123 101.427 0 91.008-46.131 113.766-103.014 113.766s-103.014-22.758-103.014-113.766c0-34.074 13.645-72.934 35.123-101.427 3.763-25.6-0.41-44.493-4.582-55.398-49.715-12.621-106.726-33.331-106.726-62.208v-76.8h358.4v76.8c0 28.877-57.011 49.587-106.726 62.208zM691.251 281.6h-307.251c0 0 0 51.174 0 51.174 0.333 0 10.675 17.971 87.398 37.402 8.064 2.048 14.643 7.91 17.613 15.693 5.299 13.824 10.624 36.864 5.99 68.25-0.614 4.25-2.304 8.243-4.864 11.674-18.202 24.166-29.952 57.933-29.952 86.042 0 73.165 30.95 88.166 77.414 88.166s77.414-15.002 77.414-88.166c0-28.109-11.75-61.875-29.952-86.042-2.586-3.43-4.25-7.424-4.864-11.674-4.634-31.386 0.691-54.426 5.99-68.25 2.97-7.808 9.549-13.645 17.613-15.693 78.387-19.84 87.475-38.17 87.552-38.349l-0.102-50.227z" />
<glyph unicode="&#xe611;" d="M537.6 537.6v-102.4h102.4v102.4h-102.4zM614.4 460.8h-51.2v51.2h51.2v-51.2zM665.6 537.6v-102.4h102.4v102.4h-102.4zM742.4 460.8h-51.2v51.2h51.2v-51.2zM537.6 409.6v-102.4h102.4v102.4h-102.4zM614.4 332.8h-51.2v51.2h51.2v-51.2zM665.6 409.6v-102.4h102.4v102.4h-102.4zM742.4 332.8h-51.2v51.2h51.2v-51.2zM537.6 281.6v-102.4h102.4v102.4h-102.4zM614.4 204.8h-51.2v51.2h51.2v-51.2zM665.6 281.6v-102.4h102.4v102.4h-102.4zM742.4 204.8h-51.2v51.2h51.2v-51.2zM281.6 409.6v-102.4h102.4v102.4h-102.4zM358.4 332.8h-51.2v51.2h51.2v-51.2zM409.6 409.6v-102.4h102.4v102.4h-102.4zM486.4 332.8h-51.2v51.2h51.2v-51.2zM281.6 281.6v-102.4h102.4v102.4h-102.4zM358.4 204.8h-51.2v51.2h51.2v-51.2zM409.6 281.6v-102.4h102.4v102.4h-102.4zM486.4 204.8h-51.2v51.2h51.2v-51.2zM691.2 742.4v25.6c0 14.131-11.469 25.6-25.6 25.6h-25.6c-14.131 0-25.6-11.469-25.6-25.6v-25.6h-179.2v25.6c0 14.131-11.469 25.6-25.6 25.6h-25.6c-14.131 0-25.6-11.469-25.6-25.6v-25.6h-153.6v-640h640v640h-153.6zM640 768h25.6v-76.8h-25.6v76.8zM384 768h25.6v-76.8h-25.6v76.8zM819.2 128h-588.8v588.8h128v-25.6c0-14.131 11.469-25.6 25.6-25.6h25.6c14.131 0 25.6 11.469 25.6 25.6v25.6h179.2v-25.6c0-14.131 11.469-25.6 25.6-25.6h25.6c14.131 0 25.6 11.469 25.6 25.6v25.6h128v-588.8z" />
<glyph unicode="&#xe612;" d="M512 657.101c-28.262 0-51.2-22.938-51.2-51.2 0-28.288 22.938-51.2 51.2-51.2s51.2 22.912 51.2 51.2c0 28.237-22.912 51.2-51.2 51.2zM512 580.301c-14.157 0-25.6 11.443-25.6 25.6 0 14.131 11.443 25.6 25.6 25.6s25.6-11.469 25.6-25.6c0-14.157-11.443-25.6-25.6-25.6zM580.992 293.12l84.608-66.97 25.6 125.85-51.2 49.101v41.523l170.778 170.675-18.099 18.099-152.678-152.602v135.603c0 153.6-128 230.4-128 230.4s-128-76.8-128-230.4v-135.45l-152.55 152.55-18.125-18.125 170.675-170.675v-41.6l-51.2-51.2 25.6-123.75 84.813 67.123c-1.152-4.275-2.176-9.216-3.2-14.285l-226.842-226.688 18.099-18.099 204.416 204.262c-0.128-4.122-0.486-7.859-0.486-12.314 0-76.8 76.8-104.55 76.8-155.75 0 51.2 76.8 80 76.8 156.8 0 4.019-0.333 7.373-0.461 11.136l204.237-204.237 18.125 18.125-226.483 226.483c-0.973 5.197-2.048 10.061-3.226 14.413zM663.398 341.478l-14.925-74.726-69.888 56.678-15.386 9.37-33.075 0.026 84.275 84.224v-26.24l48.998-49.331zM409.6 614.4c0 110.029 71.936 176.205 102.4 199.27 30.413-23.040 102.4-89.216 102.4-199.27v-161.178l-102.374-102.298-102.426 102.426v161.050zM445.466 323.43l-69.888-54.579-14.95 73.702 48.973 48.256v26.291l84.275-84.301h-33.075l-15.334-9.37zM563.2 226.15c0-32.691-18.406-58.138-37.888-80.538-4.506-5.146-9.011-10.342-13.312-15.693-4.301 5.35-8.806 10.547-13.312 15.693-19.482 22.374-37.888 47.846-37.888 80.538 0 17.818 1.536 30.413 3.712 41.088l39.987 39.962h15.002l40.038-40.038c2.125-10.65 3.661-23.219 3.661-41.011z" />
<glyph unicode="&#xe613;" d="M384 153.6h-281.6v25.6h281.6v-25.6zM384 230.4h-281.6v-25.6h281.6v25.6zM384 281.6h-281.6v-25.6h281.6v25.6zM388.915 324.224l-279.322 38.067-3.456-25.37 279.322-38.067 3.456 25.37zM401.741 350.515l-263.987 99.533-9.037-23.987 264.013-99.507 9.011 23.962zM422.81 375.936l-230.579 162.893-14.797-20.941 230.605-162.842 14.771 20.89zM447.718 394.522l-185.165 212.941-19.354-16.819 185.216-212.915 19.302 16.794zM477.875 407.091l-126.080 252.288-22.938-11.469 126.157-252.262 22.861 11.443zM511.693 411.392l-56.371 276.608-25.139-5.094 56.422-276.582 25.088 5.069zM640 153.6h281.6v25.6h-281.6v-25.6zM640 204.8h281.6v25.6h-281.6v-25.6zM640 256h281.6v25.6h-281.6v-25.6zM638.234 298.854l279.322 38.067-3.456 25.37-279.322-38.067 3.456-25.37zM630.963 326.579l264.013 99.507-9.037 23.987-263.987-99.533 9.011-23.962zM615.654 355.021l230.605 162.842-14.797 20.941-230.579-162.893 14.771-20.89zM595.277 377.728l185.216 212.915-19.354 16.819-185.165-212.941 19.302-16.794zM568.73 395.674l126.157 252.262-22.938 11.469-126.080-252.288 22.861-11.443zM537.114 406.323l56.422 276.582-25.139 5.094-56.397-276.608 25.114-5.069z" />
<glyph unicode="&#xe614;" d="M819.2 256c-33.408 0-61.517-21.453-72.090-51.2h-367.821c-6.298 17.69-18.765 32.205-34.97 41.242l26.803 35.558h473.677v0.87l0.179-0.051 76.621 306.381-571.187 142.746-6.17-24.858 546.304-136.576-65.715-262.912h-454.144l-165.888 460.544v0.256h-102.4v-25.6h84.301l161.613-448.563-29.414-38.989c-3.84 0.563-7.706 1.152-11.699 1.152-42.419 0-76.8-34.406-76.8-76.8s34.381-76.8 76.8-76.8 76.8 34.406 76.8 76.8h358.4c0-42.394 34.381-76.8 76.8-76.8s76.8 34.406 76.8 76.8-34.381 76.8-76.8 76.8zM307.2 128c-28.262 0-51.2 22.938-51.2 51.2s22.938 51.2 51.2 51.2 51.2-22.938 51.2-51.2-22.938-51.2-51.2-51.2zM819.2 128c-28.262 0-51.2 22.938-51.2 51.2s22.938 51.2 51.2 51.2 51.2-22.938 51.2-51.2-22.938-51.2-51.2-51.2z" />
<glyph unicode="&#xe615;" d="M812.493 640.41c14.157 94.285-38.195 140.262-38.195 140.262-37.402 42.573-103.936 64.128-197.837 64.128h-246.502c-23.91 0-44.006-17.075-47.693-40.678l-102.656-650.906c-1.562-9.907 1.306-19.738 7.808-27.341s15.949-11.802 25.958-11.802h137.011l-8.141-51.738c-1.459-9.139 1.203-18.56 7.194-25.574 5.965-7.014 14.72-11.162 23.91-11.162h128.256c21.76 0 39.962 15.642 43.238 36.659l25.446 159.949 1.613 8.755c1.459 8.73 8.858 15.027 17.638 15.027h19.2c147.61 0 236.006 69.709 262.81 207.078 13.338 68.506 3.712 121.958-28.646 158.874-8.448 9.574-18.79 18.125-30.797 25.421zM213.35 139.469c-3.251 0-5.248 1.92-6.195 3.021-0.896 1.050-2.355 3.405-1.843 6.63l102.656 650.829c1.69 10.854 10.957 18.662 21.99 18.662h246.502c86.093 0 146.099-18.483 178.253-55.194 2.893-3.277 5.606-6.502 8.090-9.856 17.459-23.398 25.651-48.768 25.702-81.050 0-7.245-0.41-14.848-1.203-22.861-3.84 1.562-7.859 3.046-11.955 4.403-2.611 0.845-5.248 1.69-7.706 2.406-5.248 1.562-10.65 2.944-16.205 4.173-5.606 1.229-11.29 2.304-16.998 3.226-19.84 3.2-42.061 4.813-65.843 4.813h-193.254c-6.656 0-13.005-1.485-18.944-4.326-13.056-6.298-22.144-18.56-24.346-32.691l-41.088-260.429-25.805-163.84-10.701-67.891h-141.107zM783.488 623.002c-0.256-1.51-0.538-3.149-0.845-4.659-28.058-144.102-117.35-214.272-272.998-214.272h-72.294c-5.299 0-10.445-0.691-15.206-2.278l35.61 225.741c0.896 5.76 4.608 10.65 9.907 13.21 2.406 1.178 4.992 1.69 7.706 1.69h193.254c22.451 0 43.238-1.408 61.696-4.403 5.299-0.794 10.496-1.741 15.488-2.867 4.941-1.075 9.754-2.304 14.592-3.738 2.304-0.64 4.557-1.382 6.758-2.099 5.734-1.869 11.238-3.968 16.333-6.323zM845.952 458.138c-24.346-125.184-101.939-185.984-237.21-185.984h-19.2c-21.709 0-39.962-15.616-43.238-36.762l-25.754-161.613-1.306-6.963c-1.408-8.73-8.806-15.027-17.638-15.027h-128.256c-2.202 0-3.61 1.152-4.198 1.869s-1.613 2.278-1.254 4.454l10.496 66.611 37.043 235.008c1.741 10.88 10.957 18.918 21.888 18.918h72.294c166.195 0 266.291 77.517 297.702 230.784 6.042-4.454 11.392-9.37 15.949-14.592 27.238-30.95 34.637-75.699 22.682-136.704z" />
<glyph unicode="&#xe616;" d="M844.8 716.8c-152.013 0-281.6 128-332.8 128s-180.787-128-332.8-128c-29.21 0-51.2-21.197-51.2-51.2 0-179.2 48-406.4 153.6-512s204.8-128 230.4-128 124.8 22.4 230.4 128 153.6 332.8 153.6 512c0 30.003-21.99 51.2-51.2 51.2zM724.301 171.699c-100.045-100.045-192.896-120.499-212.301-120.499s-112.256 20.454-212.301 120.499c-100.915 100.915-146.099 320.794-146.099 493.901 0 15.539 10.061 25.6 25.6 25.6 103.142 0 194.048 53.402 260.429 92.416 28.365 16.691 60.518 35.584 72.371 35.584s44.006-18.893 72.371-35.584c66.381-39.014 157.286-92.416 260.429-92.416 15.539 0 25.6-10.061 25.6-25.6 0-173.107-45.184-392.986-146.099-493.901zM530.099 435.2l190.080-190.080-18.099-18.099-190.080 190.080-190.080-190.080-18.099 18.099 190.080 190.080-190.080 190.080 18.099 18.099 190.080-190.080 190.080 190.080 18.099-18.099-190.080-190.080z" />
<glyph unicode="&#xe617;" d="M878.413 693.606c0 25.318-18.56 43.213-43.213 43.213-128.256-0.026-237.594 107.981-280.806 107.981s-152.55-108.006-280.806-108.006c-24.627 0-43.187-17.869-43.187-43.187 0-26.010 1.306-53.222 3.738-80.896-13.798-2.406-27.802-3.917-42.138-3.917-24.653 0-43.213-17.894-43.213-43.213 0-151.194 40.499-342.912 129.613-432s172.8-107.981 194.406-107.981 105.293 18.893 194.406 108.006c30.285 30.285 54.81 72.55 74.163 120.909 2.483 2.381 4.941 4.634 7.424 7.091 89.088 89.088 129.613 280.781 129.613 432zM259.456 618.214c-2.253 26.010-3.456 51.43-3.456 75.392 0 10.854 6.758 17.613 17.613 17.613 88.115 0 165.35 45.389 221.747 78.515 22.349 13.133 50.15 29.466 59.034 29.466s36.71-16.333 59.059-29.466c56.397-33.126 133.632-78.515 221.747-78.515 10.854 0 17.613-6.758 17.613-17.613 0-120.038-27.981-275.558-88.397-370.714v-0.026c21.888 78.899 32.41 166.016 32.41 242.739 0 25.318-18.56 43.213-43.213 43.213-128.256-0.026-237.619 107.981-280.806 107.981-35.072 0-113.818-71.066-210.842-97.818l-2.509-0.768zM649.088 151.706c-83.43-83.456-160.282-100.506-176.282-100.506s-92.851 17.050-176.307 100.506c-83.891 83.891-122.112 273.357-122.112 413.901 0 10.854 6.758 17.613 17.613 17.613 88.115 0 165.35 45.389 221.747 78.515 22.349 13.133 50.15 29.466 59.059 29.466s36.71-16.333 59.059-29.466c56.397-33.126 133.632-78.515 221.747-78.515 10.854 0 17.613-6.758 17.613-17.613-0.026-140.544-38.221-330.010-122.138-413.901zM491.699 371.2l153.882-153.882-18.099-18.099-153.882 153.882-153.882-153.882-18.099 18.099 153.882 153.882-153.882 153.856 18.099 18.125 153.882-153.882 153.882 153.882 18.099-18.125-153.882-153.856z" />
<glyph unicode="&#xe618;" d="M793.6 486.4v76.8c0 155.52-126.080 281.6-281.6 281.6s-281.6-126.080-281.6-281.6v-76.8h-76.8v-460.8h716.8v460.8h-76.8zM256 563.2c0 141.389 114.611 256 256 256s256-114.611 256-256v-76.8h-512v76.8zM844.8 51.2h-665.6v409.6h665.6v-409.6zM512 358.4c-56.55 0-102.4-45.85-102.4-102.4s45.85-102.4 102.4-102.4 102.4 45.85 102.4 102.4-45.85 102.4-102.4 102.4zM512 179.2c-42.419 0-76.8 34.406-76.8 76.8s34.381 76.8 76.8 76.8 76.8-34.406 76.8-76.8-34.381-76.8-76.8-76.8z" />
<glyph unicode="&#xe619;" d="M512 358.4c-56.55 0-102.4-45.85-102.4-102.4s45.85-102.4 102.4-102.4 102.4 45.85 102.4 102.4-45.85 102.4-102.4 102.4zM512 179.2c-42.394 0-76.8 34.406-76.8 76.8s34.406 76.8 76.8 76.8 76.8-34.406 76.8-76.8-34.406-76.8-76.8-76.8zM256 486.4v76.8c0 141.389 114.611 256 256 256 94.464 0 176.794-51.302 221.158-127.462l19.123 17.741c-49.459 81.050-138.419 135.322-240.282 135.322-155.52 0-281.6-126.080-281.6-281.6v-76.8h-76.8v-460.8h716.8v460.8h-614.4zM844.8 51.2h-665.6v409.6h665.6v-409.6z" />
<glyph unicode="&#xe61a;" d="M793.6 486.4v76.8c0 155.52-126.080 281.6-281.6 281.6s-281.6-126.080-281.6-281.6v-76.8h-76.8v-460.8h716.8v460.8h-76.8zM256 563.2c0 141.389 114.611 256 256 256s256-114.611 256-256v-76.8h-512v76.8zM844.8 51.2h-665.6v409.6h665.6v-409.6zM700.518 361.498l-217.216-217.19-108.621 108.595 18.099 18.099 90.522-90.496 199.117 199.091 18.099-18.099z" />
<glyph unicode="&#xe61b;" d="M512 844.8c-211.046 0-383.846-159.846-406.195-364.902l-63.002 63.002-18.099-18.099 90.496-90.496 90.496 90.496-18.099 18.099-55.373-55.347c25.6 187.238 185.523 331.648 379.776 331.648 212.070 0 384-171.93 384-384s-171.93-384-384-384c-144.896 0-270.976 80.358-336.358 198.861l-22.451-12.339c69.734-126.413 204.211-212.122 358.81-212.122 226.227 0 409.6 183.398 409.6 409.6s-183.373 409.6-409.6 409.6z" />
<glyph unicode="&#xe61c;" d="M230.4 256h25.6v-128h-128v25.6h87.68c-69.914 73.421-113.28 172.262-113.28 281.6 0 226.202 183.373 409.6 409.6 409.6 47.181 0 92.314-8.371 134.502-23.040l-12.979-22.502c-38.221 12.749-79.002 19.942-121.523 19.942-212.070 0-384-171.93-384-384 0-100.557 39.091-191.59 102.4-259.994v80.794zM808.32 716.8h87.68v25.6h-128v-128h25.6v80.794c63.309-68.403 102.4-159.462 102.4-259.994 0-212.070-171.93-384-384-384-42.522 0-83.302 7.194-121.523 19.942l-12.979-22.502c42.189-14.669 87.322-23.040 134.502-23.040 226.227 0 409.6 183.398 409.6 409.6 0 109.338-43.392 208.179-113.28 281.6z" />
<glyph unicode="&#xe61d;" d="M646.502 821.76l-12.979-22.502c-38.221 12.749-79.002 19.942-121.523 19.942-212.070 0-384-171.93-384-384 0-100.557 39.091-191.59 102.4-259.994v80.794h25.6v-128h-128v25.6h87.68c-69.914 73.421-113.28 172.262-113.28 281.6 0 226.202 183.373 409.6 409.6 409.6 47.181 0 92.314-8.371 134.502-23.040zM808.32 716.8h87.68v25.6h-128v-128h25.6v80.794c63.309-68.403 102.4-159.462 102.4-259.994 0-212.070-171.93-384-384-384-42.522 0-83.302 7.194-121.523 19.942l-12.979-22.502c42.189-14.669 87.322-23.040 134.502-23.040 226.227 0 409.6 183.398 409.6 409.6 0 109.338-43.392 208.179-113.28 281.6zM802.15 435.2c0-155.52-126.080-281.6-281.6-281.6s-281.6 126.080-281.6 281.6 126.080 281.6 281.6 281.6 281.6-126.080 281.6-281.6zM683.776 632.397c13.184-33.741 26.624-67.763 35.174-81.664 8.013-12.979 38.682-20.326 46.618-42.47-14.643 49.126-43.29 92.237-81.792 124.134zM658.662 626.355c-6.323 1.51-19.712 1.741-28.134 1.894-9.984 0.205-20.173 0.461-29.44 1.51-13.542 1.562-25.344 4.787-36.787 7.885-14.336 3.891-27.878 7.578-44.186 7.578l-4.582-0.102c-4.89-0.205-23.859-4.454-63.027-49.894-11.29-13.107-16-23.45-10.394-60.698 4.71-31.462 14.157-34.662 20.352-36.608 3.2-0.922 14.285-2.099 22.349-2.662 31.667-2.202 67.558-5.504 83.302-28.083 15.386-22.042 24.397-73.011 23.578-130.176-0.333-25.344 12.902-55.398 19.149-80.998h0.435c8.166 0 31.821 17.792 51.942 52.403l5.965 13.594c19.61 33.229 29.44 49.894 29.286 107.315-0.077 24.909 16.768 39.219 29.082 49.715 10.957 9.318 14.387 13.030 14.387 18.048 0 5.171-5.478 9.395-18.56 17.51-9.754 6.042-19.789 12.288-26.214 22.707-10.035 16.307-23.859 51.533-38.502 89.062zM282.957 377.395c1.69 10.547 5.786 20.89 15.437 29.542-4.506 1.408-22.349 5.99-32.717 6.374 2.099-24.627 7.731-48.205 16.307-70.349 0.538 10.342 0.512 25.549 0.973 34.432zM776.55 435.2c0 24.96-3.942 48.947-10.598 71.757 0.947-3.021 1.587-6.246 1.587-9.856 0-33.613-43.52-40.243-43.443-67.712 0.205-70.426-14.771-89.242-38.733-130.458-28.211-48.512-70.758-75.213-91.622-54.707-13.568 13.312-28.032 67.917-27.622 96.563 0.819 56.32-8.499 98.432-18.97 113.434-13.005 18.662-75.034 14.208-92.288 19.661-14.413 4.557-31.59 14.131-38.016 57.011-6.042 40.243-2.099 59.75 16.333 81.101 15.283 17.741 50.97 57.472 81.382 58.701 36.71 1.51 59.648-12.058 89.498-15.488 16.512-1.894 35.84-0.896 51.226-2.586-39.219 24.294-85.248 38.579-134.733 38.579-139.802 0-253.261-112.128-255.77-251.341 4.122-0.538 46.438-6.144 57.37-16.282 11.494-10.65 12.288-24.576 0-31.13-12.262-6.554-14.746-13.952-14.746-32.794 0-18.816 4.531-43.546-9.856-47.488-0.512-0.154-0.87-0.077-1.357-0.205 43.546-79.13 127.693-132.762 224.358-132.762 141.363 0 256 114.611 256 256z" />
<glyph unicode="&#xe61e;" d="M646.502 821.76l-12.979-22.502c-38.221 12.749-79.002 19.942-121.523 19.942-212.070 0-384-171.93-384-384 0-100.557 39.091-191.59 102.4-259.994v80.794h25.6v-128h-128v25.6h87.68c-69.914 73.421-113.28 172.262-113.28 281.6 0 226.202 183.373 409.6 409.6 409.6 47.181 0 92.314-8.371 134.502-23.040zM808.32 716.8h87.68v25.6h-128v-128h25.6v80.794c63.309-68.403 102.4-159.462 102.4-259.994 0-212.070-171.93-384-384-384-42.522 0-83.302 7.194-121.523 19.942l-12.979-22.502c42.189-14.669 87.322-23.040 134.502-23.040 226.227 0 409.6 183.398 409.6 409.6 0 109.338-43.392 208.179-113.28 281.6zM745.6 428.8c-14.413-1.613-54.067-18.099-62.413-25.6-16-14.413-36.813-8.013-51.2-17.613s-17.587-17.587-11.187-28.8 17.613-35.2 25.6-49.613 41.6-33.613 49.613-41.6 4.813-24.013-8.013-38.4-33.613-24.013-32-33.613 16-30.413 9.6-38.4-49.613-3.2-67.2-4.813-41.6-12.8-51.2-4.813-30.413-12.8-41.6-6.4-38.4 12.8-54.4 14.413-76.8-8.013-86.4 4.813 1.613 46.413 11.213 68.813 20.787 32.026 20.787 41.626-51.2 14.413-67.2 24.013-27.187 30.387-20.787 39.987-17.613 27.213-12.8 41.6-11.213 51.2-3.2 68.813 4.813 44.8 3.2 57.6 24.013 6.4 33.613 17.613 11.213 33.613 9.6 48 17.587 22.374 15.974 41.574-20.813 36.813 4.813 52.813 38.4-3.2 52.813-4.813 25.6 11.213 30.413 20.813 0 30.413-1.613 40.013-11.213 6.4-19.2 20.813 17.613 16 36.813 12.8 38.4-12.8 43.213-25.6 32-12.8 43.213-11.213 1.613-22.4-1.613-32 26.24-5.402 32 1.613c17.075 20.813 68.813 38.707 80 38.4 20.275-0.538 1.792-21.043 19.2-33.613 19.2-13.85 42.675-51.2 40.525-69.35-1.638-14.003-14.925-32 2.662-42.65 11.597-7.040 9.6-38.4 12.8-52.813s16-38.4 19.2-49.613 9.574-43.213-4.838-44.8zM728.73 451.2c-0.461 4.557-1.485 10.24-2.944 15.36-1.126 3.994-3.814 9.907-6.656 16.307-5.171 11.853-10.522 24.090-12.928 34.79-1.152 5.171-1.843 12.16-2.483 19.661-0.461 5.376-1.254 14.72-2.509 19.405-25.318 18.432-16.384 46.822-12.902 57.856 0.768 2.458 1.69 4.838 1.946 6.554-0.23 8.653-16.23 36.147-30.054 46.157-10.394 7.501-15.104 16.666-17.28 25.19-16.154-5.504-39.603-16.256-47.181-25.498-10.726-13.082-31.974-16.538-42.829-16.538-16.486 0-25.088 7.142-29.389 13.133-5.171 7.168-6.707 16.102-4.275 24.73-27.622 3.866-37.35 18.278-40.448 26.752-1.101 1.562-5.453 4.608-12.186 7.066 0.077-0.358 0.896-5.018 0.896-5.018 3.456-18.842 5.914-36.941-1.459-51.712-8.474-16.947-26.291-35.098-50.842-35.098l-5.274 0.307c-8.986 0.998-16.128 4.608-21.862 7.501-3.43 1.69-6.938 3.482-8.678 3.482-1.229 0-3.43-0.922-5.862-2.432-0.205-0.154-0.41-0.256-0.563-0.384 0.538-1.766 1.357-4.019 1.946-5.709 2.253-6.221 5.018-13.952 5.76-22.912 1.638-19.584-7.834-32.819-13.491-40.781-0.768-1.101-1.613-2.099-2.278-3.149 0.896-11.597 1.638-44.006-15.898-64.461-7.654-8.96-17.51-12.698-25.933-14.746 1.254-18.099 0.538-37.862-6.758-53.786-1.101-4.173 1.434-17.715 2.765-24.986 2.458-13.312 4.813-25.907 2.381-37.453 0.947-1.792 2.483-4.25 3.61-6.042 4.966-8.013 14.694-23.654 8.269-39.936 1.587-2.97 4.992-7.424 9.37-10.086 3.866-2.227 18.176-5.658 26.726-7.706 27.264-6.477 52.966-12.621 52.966-38.221 0-12.518-5.914-21.939-11.648-31.078-3.558-5.683-7.578-12.083-11.213-20.634-7.782-18.15-11.366-31.693-12.442-39.603 2.355-0.154 5.376-0.256 9.216-0.256 9.472 0 19.763 0.64 28.902 1.203 8.32 0.512 15.77 0.947 21.248 0.947 2.842 0 5.299-0.128 7.296-0.333 14.592-1.485 41.344-6.938 58.496-14.618 1.357 0.538 2.688 1.229 4.070 1.818 6.938 3.021 15.539 6.784 25.267 6.784 6.323 0 12.262-1.562 17.408-4.582 3.635 0.435 9.293 1.818 14.003 2.97 7.475 1.843 15.206 3.738 23.066 4.454 3.584 0.333 8.013 0.461 12.979 0.461 0 0 21.709-0.358 25.907-0.358-1.869 4.454-3.456 8.806-4.198 13.389-3.482 20.813 12.826 33.69 24.73 43.11 4.89 3.84 9.958 7.859 13.389 11.699 2.33 2.662 3.789 4.941 4.71 6.707-2.15 1.587-4.736 3.328-7.45 5.248-19.251 13.594-34.611 25.088-42.112 38.605-4.147 7.501-9.139 17.459-13.926 27.008-4.352 8.704-8.499 17.050-11.52 22.349-7.731 13.491-15.488 39.654 19.226 62.797 11.136 7.398 22.861 9.139 32.256 10.547 8.166 1.203 12.979 2.022 16.026 4.813 10.726 9.651 41.446 22.912 62.643 28.954zM614.4 563.2c-14.157 0-25.6-11.443-25.6-25.6s11.443-25.6 25.6-25.6 25.6 11.443 25.6 25.6-11.443 25.6-25.6 25.6zM435.2 409.6c-14.157 0-25.6-11.443-25.6-25.6s11.443-25.6 25.6-25.6 25.6 11.443 25.6 25.6-11.443 25.6-25.6 25.6z" />
<glyph unicode="&#xe61f;" d="M230.4 256h25.6v-128h-128v25.6h87.68c-69.914 73.421-113.28 172.262-113.28 281.6 0 226.202 183.373 409.6 409.6 409.6 47.181 0 92.314-8.371 134.502-23.040l-12.979-22.502c-38.221 12.749-79.002 19.942-121.523 19.942-212.070 0-384-171.93-384-384 0-100.557 39.091-191.59 102.4-259.994v80.794zM808.32 716.8h87.68v25.6h-128v-128h25.6v80.794c63.309-68.403 102.4-159.462 102.4-259.994 0-212.070-171.93-384-384-384-42.522 0-83.302 7.194-121.523 19.942l-12.979-22.502c42.189-14.669 87.322-23.040 134.502-23.040 226.227 0 409.6 183.398 409.6 409.6 0 109.338-43.392 208.179-113.28 281.6zM639.667 720.538c-14.874 0-31.13-11.238-36.25-19.328-1.766-2.842-4.122-6.63-6.861-11.034-27.955-45.261-46.848-73.651-60.826-84.992-3.942-3.226-7.194-6.682-9.549-11.136 1.766 0.282 3.405 0.384 4.838 0.384 15.616 0 25.293-10.163 31.59-22.554 0.794 4.045 1.126 7.91 0.691 11.341-3.942 30.234 9.421 60.851 33.254 76.186 1.254 0.794 2.842 3.277 4.557 5.914 4.48 6.912 13.798 21.299 33.229 21.299 2.79 0 5.658-0.333 8.474-0.973 13.542-2.97 23.578-14.029 25.907-28.723 2.714-17.254-5.299-38.272-18.227-50.381 13.338 5.043 31.488 15.181 35.021 21.376 2.176 5.248-1.357 18.97-4.454 31.078-3.763 14.669-8.038 31.334-8.038 49.869-1.075 2.893-13.107 11.674-33.357 11.674zM639.667 746.138c32.205 0 58.982-16.717 58.982-37.248 0-35.558 20.25-67.43 10.368-91.136-8.422-20.198-55.066-39.834-69.504-39.834-2.509 0-4.378 0.538-5.402 1.69-6.912 7.91-15.795 36.506-3.942 43.418s19.763 34.816 6.938 37.658c-0.973 0.23-1.869 0.333-2.714 0.333-10.189 0-11.162-14.925-23.936-23.142-13.824-8.909-24.678-28.646-21.734-51.354s-10.854-45.44-11.853-59.238c-0.486-6.63-5.76-11.008-11.725-11.008-6.477 0-13.824 5.094-16.896 17.92-4.864 20.326-10.419 34.637-17.203 34.637-1.459 0-2.944-0.64-4.531-2.048-5.504-4.864-14.771-14.669-21.504-14.669-4.173 0-7.373 3.738-8.115 14.669-1.971 28.621 6.912 45.389 22.707 58.24s50.355 71.091 62.208 89.856c9.651 15.309 33.766 31.258 57.856 31.258v0zM658.739 514.355c-3.072-2.56-6.63-4.429-10.522-5.555 4.557-11.469 0.742-21.018-1.382-24.96-8.858-16.461-27.11-16.998-40.397-17.434-3.558-0.102-8.397-0.256-10.368-0.666-1.229-0.384-4.787-2.56-7.117-3.968-7.373-4.48-16.538-10.061-28.314-10.061-8.243 0-15.923 2.79-22.349 8.064-1.254 0.41-3.558 0.896-5.146 1.254-1.536 0.333-3.226 0.691-5.018 1.178-6.272-5.888-14.131-10.24-21.837-14.464-3.43-1.894-6.861-3.738-9.498-5.581-2.995-2.406-10.035-12.723-13.952-19.942l-1.894-3.456-2.816-2.714c-14.848-14.31-35.763-32.179-50.995-35.994-1.971-0.512-4.301-0.998-6.835-1.536 3.661-6.349 6.861-14.080 8.166-23.373 4.429-31.206-0.742-53.504-15.437-66.33-8.806-7.706-20.429-9.165-38.81-9.165-4.966 0-10.342 0.128-15.77 0.23-5.12 0.128-10.24 0.23-15.053 0.23-1.894 0-3.558-0.026-4.992-0.051-0.742-4.096-1.459-8.73-1.92-11.878-1.485-9.754-2.714-18.176-5.402-24.858l-1.971-4.762c-1.818-4.326-6.989-16.538-7.962-22.835 5.478-8.832 7.706-11.366 9.856-11.366 6.605 0 14.541-0.819 22.989-1.69 8.934-0.922 19.072-1.971 27.341-1.971 3.456 0 5.862 0.179 7.501 0.384 0.819 3.251 1.536 8.115 1.997 11.366 1.843 12.57 4.838 33.28 23.859 40.166 1.69 1.92 5.248 7.168 11.366 21.453l1.434 3.379c5.402 12.979 14.438 34.662 44.621 38.195l1.51 0.179 2.56 0.077c24.064 0 34.176-22.426 40.192-35.814 2.099-4.659 5.606-12.416 7.68-14.387 2.534-2.355 5.35-4.71 8.218-7.066 11.648-9.728 28.083-23.424 32.538-42.778 2.099 3.661 2.253 5.53 1.971 6.451l-7.066 23.424c-16.435 15.181-32.922 36.224-35.891 49.536-4.224 19.021 3.789 40.166 18.688 49.152 4.608 2.714 9.549 4.070 14.541 4.070 15.386 0 24.602-11.366 32.717-21.427 2.662-3.302 5.581-6.963 8.73-10.138 2.662-2.662 8.038-6.784 13.235-10.752 16.154-12.365 30.131-23.066 33.28-38.886 0.742-3.686 1.331-9.062 1.869-14.95 0.051-0.41 0.077-0.819 0.128-1.28 1.51 1.075 3.072 1.997 4.762 2.739 4.48 10.47 14.234 17.050 25.421 17.050 1.946 0 3.789-0.205 5.555-0.538-2.33 8.832-2.662 18.816 3.354 28.314 2.816 4.506 10.854 24.090 13.44 36.147 4.326 20.045 19.994 33.536 39.040 33.536 6.016 0 11.853-1.382 17.178-3.994 3.968 7.014 10.061 13.133 17.971 17.536 1.28 0.691 2.662 1.408 4.198 2.15 1.229 0.589 2.97 1.485 3.814 2.022-3.149 1.178-8.064 2.56-11.366 3.507-5.683 1.613-11.546 3.251-17.178 5.734-17.843 7.808-23.808 24.371-27.366 34.304-0.026 0.128-0.077 0.256-0.128 0.384-32.794 6.81-30.899 35.712-30.259 45.722-0.128 2.56-3.738 8.806-6.528 11.366-11.341 4.454-22.835 14.131-30.182 27.315zM652.544 560c9.728 0 23.424-7.424 24.038-17.894 0.998-16.794 13.824-28.621 22.63-31.565s22.784-21.734 21.811-36.557 0.973-18.739 15.795-19.738 10.854-28.621 26.65-35.533c11.853-5.171 30.925-7.014 39.706-16.41 2.918-3.123 4.762-7.066 4.736-12.262-0.102-22.758-14.31-26.47-21.76-30.592s-13.824-13.824-7.91-24.704c4.096-7.501 2.611-22.989-5.299-22.989-3.558 0-6.682 0.64-7.91 1.869-3.942 3.942-11.853 21.734-18.739 26.65-2.227 1.587-4.915 2.458-7.706 2.458-5.888 0-12.006-3.891-14.029-13.312-2.97-13.824-11.853-36.531-16.819-44.416s10.906-27.648 8.934-33.587c-1.818-5.453-13.619-15.027-21.658-15.027-0.717 0-1.408 0.077-2.048 0.23-6.246 1.562-12.442 8.653-15.77 8.653-0.87 0-1.562-0.512-1.971-1.741-1.971-5.914-5.914-12.826-11.853-12.826s-4.941-19.738 3.942-23.706 0-19.738-4.941-27.648c-1.894-3.021-5.069-4.301-8.397-4.301-5.376 0-11.11 3.379-12.314 8.243-1.971 7.91-7.91 30.592-13.824 37.53s-5.914 31.565-7.91 41.446-28.621 25.677-39.501 36.557c-9.984 9.984-18.253 24.038-23.347 24.038-0.486 0-0.896-0.128-1.331-0.384-4.915-2.97-8.909-12.826-6.938-21.709s25.677-37.53 42.47-47.411 26.624-21.862 19.635-28.851c-1.664-1.664-3.379-2.33-5.094-2.33-5.453 0-10.854 6.605-14.515 7.475 6.016-19.942-12.646-38.451-19.584-46.362-18.483-10.24-38.707-29.696-38.707-29.696s-30.131 25.011-24.192 31.923c3.712-0.973 7.066-1.459 10.138-1.459 12.518 0 19.712 4.838 21.274 19.123 1.971 17.766-19.763 30.899-33.613 43.725-13.466 12.493-17.178 43.366-30.464 43.366-0.358 0-0.691-0.026-1.050-0.077-16.794-1.971-19.61-12.39-25.523-26.214s-14.541-32.23-25.421-35.2-4.736-36.813-18.099-48.128c-5.018-4.25-14.208-5.581-24.73-5.581-17.485 0-38.656 3.686-50.355 3.686-18.739 0-26.65 15.77-33.587 26.65s5.914 37.53 9.882 47.411 4.941 41.446 11.853 49.357c2.509 2.867 12.339 3.533 24.243 3.533 9.882 0 21.171-0.461 30.822-0.461 10.65 0 19.328 0.538 21.939 2.842 7.91 6.912 9.882 22.733 6.938 43.443s-21.734 29.619-20.762 38.502 26.675 11.853 38.502 14.822 39.501 29.619 39.501 29.619 11.853 21.709 21.734 28.621 27.648 13.824 31.59 21.734c-9.882 18.765-6.912 38.502 5.914 40.32 0.614 0.102 1.229 0.128 1.766 0.128 10.854 0 8.909-16.41 5.146-28.595-3.942-12.826 17.766-7.91 27.648-16.794 2.022-1.818 4.173-2.586 6.451-2.586 8.755 0 19.098 11.085 30.080 13.44 13.824 2.97 40.474-1.971 32.563 10.854-7.424 12.058-2.662 32.845 7.808 32.845 0.666 0 1.357-0.102 2.074-0.282 2.611-0.64 4.608-1.024 6.17-1.024 5.581 0 5.248 4.71 3.712 17.818-0.691 6.374 3.738 9.037 9.574 9.037v0zM413.901 548.429c-8.627 0-19.558-4.506-23.68-12.237-7.91-14.797 5.914-39.501 12.851-53.325s-4.864-16.538-13.466-28.877c-8.269-11.853-15.206-20.403-7.245-32.333 2.432-3.661 5.99-4.992 10.061-4.992 9.242 0 21.094 7.040 28.006 10.266 12.851 6.016 30.848 21.99 28.877 33.843s-13.901 36.403-20.813 51.2 6.707 29.082 6.707 29.082c2.918 8.474-13.389 7.373-21.299 7.373v0zM375.194 497.792c-8.064 0-19.123-11.546-23.603-17.408-5.197-6.81-12.8-30.413-6.4-33.997 0.87-0.512 1.997-0.717 3.328-0.717 8.32 0 23.987 8.96 27.085 15.514 3.61 7.603 12.902 29.594 3.251 35.61-1.101 0.717-2.355 0.998-3.661 0.998v0zM588.8 435.2c-14.157 0-25.6-11.443-25.6-25.6s11.443-25.6 25.6-25.6 25.6 11.443 25.6 25.6-11.443 25.6-25.6 25.6zM512 409.6c-14.157 0-25.6-11.443-25.6-25.6s11.443-25.6 25.6-25.6 25.6 11.443 25.6 25.6-11.443 25.6-25.6 25.6z" />
<glyph unicode="&#xe620;" d="M230.4 256h25.6v-128h-128v25.6h87.68c-69.914 73.421-113.28 172.262-113.28 281.6 0 226.202 183.373 409.6 409.6 409.6 47.181 0 92.314-8.371 134.502-23.040l-12.979-22.502c-38.221 12.749-79.002 19.942-121.523 19.942-212.070 0-384-171.93-384-384 0-100.557 39.091-191.59 102.4-259.994v80.794zM808.32 716.8h87.68v25.6h-128v-128h25.6v80.794c63.309-68.403 102.4-159.462 102.4-259.994 0-212.070-171.93-384-384-384-42.522 0-83.302 7.194-121.523 19.942l-12.979-22.502c42.189-14.669 87.322-23.040 134.502-23.040 226.227 0 409.6 183.398 409.6 409.6 0 109.338-43.392 208.179-113.28 281.6zM588.8 409.6c-14.157 0-25.6-11.443-25.6-25.6s11.443-25.6 25.6-25.6 25.6 11.443 25.6 25.6-11.443 25.6-25.6 25.6zM460.8 358.4c-14.157 0-25.6-11.443-25.6-25.6s11.443-25.6 25.6-25.6 25.6 11.443 25.6 25.6-11.443 25.6-25.6 25.6zM365.414 665.651c-7.322 0-12.8-2.048-13.696-3.968-3.302-7.066-12.621-27.085-30.618-31.462 23.091-4.48 37.581-29.338 49.459-52.813 16.41-32.384 13.44-52.403 11.264-67.046-1.306-8.806-1.843-12.442 1.51-19.866 18.483-41.062 13.338-61.594-5.222-92.083-11.981-19.686-15.565-60.006-6.221-69.606 9.626-9.856 15.104-19.507 18.79-28.646 1.562 0.256 3.149 0.384 4.787 0.384 7.194 0 13.312-2.483 16.307-3.917 16.845-8.653 21.837-18.79 25.882-29.312 2.381-6.17 5.325-13.85 18.099-28.851 21.76-25.574 29.696-40.294 31.846-52.48 5.606-5.965 25.267-15.59 29.901-17.69-9.651 14.848-14.464 33.075-13.466 51.738 2.406 44.646 39.142 66.586 62.029 73.037 11.059 4.506 25.472 7.142 39.040 7.142 10.496 0 20.326-1.562 29.312-4.557-0.563 12.467 2.253 25.6 12.339 37.325 7.168 8.32 9.318 35.226 9.318 35.226 2.074 28.826 21.018 62.336 39.654 82.56-7.066 4.122-18.304 12.262-18.918 27.699-0.307 8.141 2.458 19.917 17.434 29.722 5.402 3.533 11.264 5.683 17.101 7.501-5.99 2.637-12.058 6.758-17.101 13.363-1.382 1.818-2.867 3.763-4.096 5.35-4.019-1.613-10.752-4.301-19.2-4.301-2.739 0-5.862 0.307-9.165 1.101 1.331-11.315-0.742-20.966-4.813-32.691-5.76-16.691-19.61-35.328-40.499-35.328-6.733 0-19.533 2.176-29.542 16.614-1.843 2.662-12.237 5.197-20.582 7.245-4.992 1.229-10.266 2.509-15.718 4.096-15.693 4.608-26.982 16.87-30.182 32.845-3.686 18.33 3.456 39.91 18.176 57.754-12.544-2.074-44.646 1.254-46.899 1.254-11.75 0-21.965 3.482-31.206 10.624-5.683 4.403-10.701 9.549-15.59 14.515-3.046 3.123-7.424 7.603-9.984 9.574-0.563 0.026-39.757-3.328-53.837 38.81-2.97 8.653-15.693 9.139-15.693 9.139zM365.414 691.251c0.896 0 1.741-0.026 2.586-0.051 12.8-0.538 28.262-0.538 37.325-26.138s25.6-20.275 36.275-22.4 22.938-19.738 34.662-28.8c5.632-4.352 10.547-5.274 15.514-5.274 3.533 0 15.232 0.333 17.536-0.051 5.222-0.87 12.416-1.843 18.97-1.843 9.523 0 17.715 2.022 16.768 9.293-1.434 11.085 1.459 15.616 6.349 15.616 7.398 0 17.126-7.629 17.126-17.741 0-0.077 0.026-0.102 0.077-0.102 0.947 0 10.163 10.061 17.382 10.061 8.397 0 8.064-9.677 8.32-10.624 0 0-0.179-16.973-25.242-37.222s-33.075-53.862-11.213-60.262 40.525-7.501 50.125-21.35c2.765-3.994 5.683-5.606 8.499-5.606 6.963 0 13.414 9.754 16.026 17.357 4.915 14.234 8.013 21.862-6.938 51.738-7.834 15.667-2.893 22.246 5.504 22.246 7.603 0 18.022-5.376 24.371-14.259 5.606-7.885 10.803-10.138 15.488-10.138 6.426 0 11.904 4.301 16.23 4.301 15.718 0 15.718 0 27.469-15.462s39.68 0.538 39.68-25.062-33.28-24.32-46.080-32.691-1.613-12.646 4.813-16.384 24.013-15.462 5.862-32.538-35.738-49.075-37.325-71.475-2.125-34.662-15.462-50.125-2.125-38.4 3.738-54.4c3.686-10.035 2.739-20.89-3.482-20.89-3.686 0-9.242 3.814-16.794 13.978-11.238 15.078-28.698 19.686-44.493 19.686-12.698 0-24.294-2.97-30.72-5.837 0 0-42.675-10.65-44.8-50.125-1.715-31.59 19.814-56.678 42.163-56.678 5.555 0 11.187 1.562 16.512 4.941 26.675 17.050-11.725 19.2 19.2 27.725 3.456 0.947 6.502 1.382 9.165 1.382 21.146 0 16.666-27.546-19.814-40.832-1.946-11.725-5.043-20.224-12.621-20.224-2.765 0-6.17 1.152-10.317 3.738-2.586 1.613-5.171 2.176-7.91 2.176-6.938 0-15.002-3.635-27.034-3.635-11.853 0-27.571 3.507-49.843 17.408-53.862 33.587 0.922 4.045-52.787 67.174-30.413 35.738-17.075 42.163-35.738 51.738 0 0-2.688 1.331-5.043 1.331-4.787 0-8.090-5.53 16.256-39.194 19.533-27.034 24.474-46.515 17.357-46.515-6.067 0-20.941 14.285-42.957 50.278-18.586 30.387-11.213 49.613-32.538 71.45s-12.262 76.262 2.662 100.813 18.125 36.25 3.738 68.25 10.675 40.55-12.262 85.862c-15.616 30.848-25.293 39.475-34.099 39.475-4.122 0-8.038-1.894-12.314-4.275-2.816-1.587-5.197-2.253-7.245-2.253-7.629 0-10.394 9.421-12.493 16.154-2.662 8.525-2.125 22.349 4.813 33.050 4.275 6.579 11.699 9.139 17.894 9.139 3.046 0 5.786-0.614 7.706-1.664 0.614-0.358 1.28-0.512 1.92-0.512 5.453 0 11.597 11.059 14.618 17.536 6.963 14.95 24.192 18.739 36.864 18.739v0z" />
<glyph unicode="&#xe621;" d="M921.6 435.2c0-226.227-183.398-409.6-409.6-409.6s-409.6 183.373-409.6 409.6 183.398 409.6 409.6 409.6c6.528 0 12.851-0.666 19.302-0.973l-55.091 55.091 18.099 18.099 90.522-90.496-90.522-90.522-18.099 18.099 63.667 63.667c-9.216 0.691-18.458 1.434-27.878 1.434-211.738 0-384-172.262-384-384s172.262-384 384-384 384 172.262 384 384c0 172.698-114.611 319.027-271.718 367.181l7.373 24.576c167.808-51.2 289.946-207.181 289.946-391.757zM572.134 195.891c-0.179 0.512-9.882 27.827-15.667 60.467 32.512-13.363 102.349-24.218 144.128 28.058 70.963 88.934 16.41 159.77-5.709 182.554 16.512 31.232 30.157 89.421-12.595 137.011-47.514 52.864-107.11 46.387-129.357 41.549-22.451 27.11-49.715 51.814-99.661 51.814-35.968 0-64.256-11.136-84.096-33.075-28.442-31.462-30.336-75.725-29.875-92.8-38.707-33.69-38.067-76.134-30.746-99.379-1.562-2.406-3.174-4.813-4.787-7.27-24.474-37.094-54.912-83.277-10.086-166.707 17.587-32.691 50.739-53.504 95.898-60.134 39.014-5.786 87.424 0.538 96.512 9.6l1.946 1.869c7.68 7.322 7.68 11.904 7.68 22.963 0 11.904-9.318 26.189-19.43 35.994l10.112-2.253v14.95c0 21.53 1.741 41.677-2.867 60.16 8.243-22.246 14.157-37.862 14.259-38.246l26.112-0.333c5.069 20.403 13.875 39.322 23.040 56.013-7.168-22.63-12.621-45.85-17.434-67.558-9.293-41.779 4.762-100.736 13.030-126.336h-56.141v-25.6h91.802l-6.067 16.691zM580.71 485.606c-8.371-8.346-44.442-46.080-67.277-98.304-13.619 37.914-40.422 95.36-86.682 133.939-10.291 10.317-18.074 8.448-22.758 5.069-8.627-6.195-7.987-17.101 2.253-37.734 1.101-2.202 3.712-6.016 7.424-11.29 15.872-22.579 51.738-73.523 56.064-142.515-1.434 0.026-2.944 0.051-4.557 0.051-14.106 0-23.834-5.632-26.086-15.053-3.558-15.053 9.754-24.064 15.693-27.059 7.014-3.482 6.016-12.826 6.016-20.25 0-1.997 0-3.507 0-4.685l3.917-0.717c-13.107-4.48-115.738-21.99-150.81 43.187-37.606 69.965-13.85 104.218 10.086 140.493 2.918 4.403 6.349 8.755 9.062 13.107l3.891 5.76-2.611 6.221c-0.205 0.435-19.098 44.723 25.907 79.795l5.581 4.352-0.64 7.014c-0.051 0.486-4.48 49.843 23.091 80.256 14.771 16.282 36.659 24.525 65.024 24.525 42.675 0 62.899-21.094 84.89-48.64l5.581-6.989 8.474 2.816c0.614 0.23 63.77 20.48 111.002-32.077 45.978-51.174 6.477-112.538 4.787-115.123l-6.426-9.779 9.088-7.296c3.302-2.662 80.384-66.022 9.907-154.342-40.755-51.021-112.461-21.248-115.482-19.968l-9.114-21.274c-3.763 22.272-5.555 46.566-1.203 66.15 10.573 47.616 27.853 114.176 55.885 142.285 2.867 2.893 9.626 9.651 7.245 18.432l-2.765 7.885-7.142 1.894c-1.28 0.358-2.662 0.512-4.019 0.512-8.986-0.077-19.2-6.554-23.296-10.65z" />
<glyph unicode="&#xe622;" d="M691.2 155.725c-226.227 0-409.6 183.373-409.6 409.6 0 95.872 33.203 183.885 88.371 253.67-156.109-57.83-267.571-207.565-267.571-383.795 0-226.227 183.373-409.6 409.6-409.6 130.355 0 246.195 61.082 321.229 155.93-44.339-16.41-92.032-25.805-142.029-25.805zM512 51.2c-211.738 0-384 172.262-384 384 0 129.357 66.202 248.832 171.187 319.078-28.442-58.445-43.187-122.47-43.187-188.954 0-239.974 195.226-435.2 435.2-435.2 19.738 0 39.475 1.382 59.085 4.122-67.149-53.478-150.477-83.046-238.285-83.046zM877.952 252.237l-22.886 11.418c36.224 72.141 50.483 156.032 34.688 241.536-35.456 192.205-208.461 323.635-398.618 312.986l56.986-56.986-18.125-18.099-90.496 90.522 90.496 90.496 18.125-18.099-62.694-62.694c204.57 13.619 391.475-126.976 429.542-333.517 16.794-91.162 1.613-180.659-37.018-257.562z" />
<glyph unicode="&#xe623;" d="M179.2 768v-153.6h153.6v153.6h-153.6zM307.2 640h-102.4v102.4h102.4v-102.4zM435.2 768v-153.6h153.6v153.6h-153.6zM563.2 640h-102.4v102.4h102.4v-102.4zM691.2 768v-153.6h153.6v153.6h-153.6zM819.2 640h-102.4v102.4h102.4v-102.4zM179.2 512v-153.6h153.6v153.6h-153.6zM307.2 384h-102.4v102.4h102.4v-102.4zM435.2 512v-153.6h153.6v153.6h-153.6zM563.2 384h-102.4v102.4h102.4v-102.4zM691.2 512v-153.6h153.6v153.6h-153.6zM819.2 384h-102.4v102.4h102.4v-102.4zM179.2 256v-153.6h153.6v153.6h-153.6zM307.2 128h-102.4v102.4h102.4v-102.4zM435.2 256v-153.6h153.6v153.6h-153.6zM563.2 128h-102.4v102.4h102.4v-102.4zM691.2 256v-153.6h153.6v153.6h-153.6zM819.2 128h-102.4v102.4h102.4v-102.4z" />
<glyph unicode="&#xe624;" d="M716.8 742.4v-614.4h204.8v614.4h-204.8zM896 153.6h-153.6v563.2h153.6v-563.2zM409.6 512v-384h204.8v384h-204.8zM588.8 153.6h-153.6v332.8h153.6v-332.8zM102.4 332.8v-204.8h204.8v204.8h-204.8zM281.6 153.6h-153.6v153.6h153.6v-153.6z" />
<glyph unicode="&#xe625;" d="M921.6 51.2v-25.6h-819.2v819.2h25.6v-793.6h793.6zM281.6 665.6v-230.4h-76.8v230.4h76.8zM256 640h-25.6v-179.2h25.6v179.2zM409.6 742.4v-256h-76.8v256h76.8zM384 716.8h-25.6v-204.8h25.6v204.8zM537.6 742.4v-307.2h-76.8v307.2h76.8zM512 716.8h-25.6v-256h25.6v256zM665.6 691.2v-179.2h-76.8v179.2h76.8zM640 665.6h-25.6v-128h25.6v128zM793.6 768v-204.8h-76.8v204.8h76.8zM768 742.4h-25.6v-153.6h25.6v153.6zM921.6 691.2v-204.8h-76.8v204.8h76.8zM896 665.6h-25.6v-153.6h25.6v153.6zM281.6 256v-128h-76.8v128h76.8zM256 230.4h-25.6v-76.8h25.6v76.8zM409.6 332.8v-153.6h-76.8v153.6h76.8zM384 307.2h-25.6v-102.4h25.6v102.4zM537.6 358.4v-230.4h-76.8v230.4h76.8zM512 332.8h-25.6v-179.2h25.6v179.2zM665.6 332.8v-128h-76.8v128h76.8zM640 307.2h-25.6v-76.8h25.6v76.8zM793.6 358.4v-102.4h-76.8v102.4h76.8zM768 332.8h-25.6v-51.2h25.6v51.2zM921.6 281.6v-102.4h-76.8v102.4h76.8zM896 256h-25.6v-51.2h25.6v51.2z" />
<glyph unicode="&#xe626;" d="M875.75 768l-119.501-45.875 9.19-23.936 78.746 30.259-85.76-192.589c-5.146 1.126-10.496 1.741-16.026 1.741-16.563 0-31.821-5.376-44.39-14.31l-46.72 46.72c8.934 12.57 14.31 27.827 14.31 44.39 0 42.394-34.381 76.8-76.8 76.8s-76.8-34.406-76.8-76.8c0-26.47 13.389-49.818 33.792-63.616l-65.434-144c-6.272 1.638-12.749 2.816-19.558 2.816-14.464 0-27.853-4.25-39.398-11.213l-55.45 64.691c11.11 13.338 18.048 30.259 18.048 48.922 0 42.394-34.381 76.8-76.8 76.8s-76.8-34.406-76.8-76.8c0-28.186 15.36-52.557 37.99-65.92l-73.062-191.846c-5.197 1.126-10.573 1.766-16.128 1.766-42.419 0-76.8-34.406-76.8-76.8s34.381-76.8 76.8-76.8 76.8 34.406 76.8 76.8c0 27.776-14.899 51.891-36.992 65.382l73.216 192.128c4.838-0.973 9.856-1.51 14.976-1.51 14.438 0 27.827 4.25 39.373 11.187l55.475-64.666c-11.11-13.312-18.048-30.259-18.048-48.922 0-42.394 34.381-76.8 76.8-76.8s76.8 34.406 76.8 76.8c0 26.47-13.389 49.818-33.818 63.642l65.485 143.974c6.246-1.638 12.723-2.816 19.533-2.816 16.563 0 31.821 5.376 44.39 14.31l46.72-46.72c-8.934-12.57-14.31-27.827-14.31-44.39 0-42.394 34.381-76.8 76.8-76.8s76.8 34.406 76.8 76.8c0 27.802-14.925 51.917-37.043 65.408l85.402 191.744 30.182-78.618 23.859 9.165-45.85 119.501zM179.2 128c-28.262 0-51.2 22.938-51.2 51.2s22.938 51.2 51.2 51.2 51.2-22.938 51.2-51.2-22.938-51.2-51.2-51.2zM256 512c0 28.262 22.938 51.2 51.2 51.2s51.2-22.938 51.2-51.2-22.938-51.2-51.2-51.2-51.2 22.938-51.2 51.2zM460.8 281.6c-28.262 0-51.2 22.938-51.2 51.2s22.938 51.2 51.2 51.2 51.2-22.938 51.2-51.2-22.938-51.2-51.2-51.2zM588.8 563.2c-28.262 0-51.2 22.938-51.2 51.2s22.938 51.2 51.2 51.2 51.2-22.938 51.2-51.2-22.938-51.2-51.2-51.2zM742.4 409.6c-28.262 0-51.2 22.938-51.2 51.2s22.938 51.2 51.2 51.2 51.2-22.938 51.2-51.2-22.938-51.2-51.2-51.2z" />
<glyph unicode="&#xe627;" d="M844.8 512c-38.016 0-69.376-27.725-75.494-64h-130.611c-2.586 25.651-12.544 48.896-28.006 67.789l92.288 92.288c29.978-21.35 71.757-18.739 98.637 8.115 29.978 29.978 29.978 78.618 0 108.595s-78.618 29.978-108.595 0c-26.906-26.88-29.44-68.685-8.115-98.637l-92.288-92.288c-18.918 15.462-42.138 25.421-67.789 28.006v130.637c36.25 6.093 63.974 37.504 63.974 75.494 0 42.394-34.406 76.8-76.8 76.8s-76.8-34.406-76.8-76.8c0-37.99 27.725-69.402 64-75.494v-130.611c-25.651-2.586-48.845-12.518-67.763-28.006l-92.314 92.288c21.35 29.978 18.739 71.757-8.115 98.637-29.978 29.978-78.618 29.978-108.595 0s-29.978-78.618 0-108.595c26.88-26.88 68.685-29.466 98.637-8.115l92.288-92.288c-15.462-18.893-25.421-42.138-28.006-67.789h-130.637c-6.093 36.25-37.504 63.974-75.494 63.974-42.394 0-76.8-34.406-76.8-76.8s34.406-76.8 76.8-76.8c37.99 0 69.402 27.725 75.494 64h130.611c2.586-25.651 12.544-48.87 28.006-67.789l-92.288-92.288c-29.952 21.325-71.757 18.739-98.637-8.115-29.978-29.978-29.978-78.618 0-108.595s78.618-29.978 108.595 0c26.88 26.88 29.466 68.659 8.115 98.637l92.288 92.288c18.893-15.462 42.138-25.421 67.789-28.006v-130.611c-36.25-6.144-63.974-37.504-63.974-75.52 0-42.394 34.406-76.8 76.8-76.8s76.8 34.406 76.8 76.8c0 38.016-27.725 69.376-64 75.494v130.611c25.651 2.586 48.87 12.544 67.789 28.006l92.288-92.288c-21.325-29.978-18.739-71.757 8.115-98.637 29.978-29.978 78.618-29.978 108.595 0s29.978 78.618 0 108.595c-26.88 26.88-68.659 29.44-98.662 8.115l-92.288 92.288c15.462 18.893 25.446 42.138 28.032 67.789h130.611c6.144-36.25 37.504-63.974 75.52-63.974 42.394 0 76.8 34.406 76.8 76.8s-34.406 76.8-76.8 76.8zM711.117 706.714c19.942 19.968 52.454 19.968 72.397 0 19.942-19.942 19.942-52.454 0-72.397-19.942-19.968-52.454-19.968-72.397 0-19.968 19.968-19.942 52.454 0 72.397zM460.8 768c0 28.237 22.963 51.2 51.2 51.2s51.2-22.963 51.2-51.2-22.963-51.2-51.2-51.2-51.2 22.963-51.2 51.2zM240.486 634.317c-19.968 19.942-19.968 52.454 0 72.397 19.942 19.968 52.454 19.968 72.397 0 19.968-19.942 19.968-52.454 0-72.397-19.968-19.968-52.454-19.968-72.397 0zM179.2 384c-28.237 0-51.2 22.963-51.2 51.2s22.963 51.2 51.2 51.2 51.2-22.963 51.2-51.2-22.963-51.2-51.2-51.2zM312.883 163.686c-19.942-19.968-52.454-19.942-72.397 0-19.968 19.942-19.968 52.454 0 72.397 19.942 19.942 52.454 19.968 72.397 0 19.968-19.968 19.968-52.454 0-72.397zM563.2 102.4c0-28.237-22.963-51.2-51.2-51.2s-51.2 22.963-51.2 51.2 22.963 51.2 51.2 51.2 51.2-22.963 51.2-51.2zM783.514 236.083c19.942-19.942 19.942-52.454 0-72.397-19.942-19.968-52.454-19.942-72.397 0s-19.942 52.454 0 72.397c19.968 19.968 52.454 19.942 72.397 0zM512 332.8c-56.474 0-102.4 45.926-102.4 102.4s45.926 102.4 102.4 102.4 102.4-45.926 102.4-102.4-45.926-102.4-102.4-102.4zM844.8 384c-28.237 0-51.2 22.963-51.2 51.2s22.963 51.2 51.2 51.2 51.2-22.963 51.2-51.2-22.963-51.2-51.2-51.2z" />
<glyph unicode="&#xe628;" d="M576 665.6h-128c-21.197 0-38.4-17.203-38.4-38.4s17.203-38.4 38.4-38.4h128c21.197 0 38.4 17.203 38.4 38.4s-17.203 38.4-38.4 38.4zM576 614.4h-128c-7.066 0-12.8 5.734-12.8 12.8s5.734 12.8 12.8 12.8h128c7.066 0 12.8-5.734 12.8-12.8s-5.734-12.8-12.8-12.8zM576 563.2h-128c-21.197 0-38.4-17.203-38.4-38.4s17.203-38.4 38.4-38.4h128c21.197 0 38.4 17.203 38.4 38.4s-17.203 38.4-38.4 38.4zM576 512h-128c-7.066 0-12.8 5.734-12.8 12.8s5.734 12.8 12.8 12.8h128c7.066 0 12.8-5.734 12.8-12.8s-5.734-12.8-12.8-12.8zM576 460.8h-128c-21.197 0-38.4-17.203-38.4-38.4s17.203-38.4 38.4-38.4h128c21.197 0 38.4 17.203 38.4 38.4s-17.203 38.4-38.4 38.4zM576 409.6h-128c-7.066 0-12.8 5.734-12.8 12.8s5.734 12.8 12.8 12.8h128c7.066 0 12.8-5.734 12.8-12.8s-5.734-12.8-12.8-12.8zM844.314 652.339l-117.146 7.603c-20.224 1.306-36.813-14.541-36.813-35.456s16.589-38.554 36.813-39.424l117.146-4.966c18.637-0.794 33.587 14.541 33.587 34.33 0 19.712-14.95 36.736-33.587 37.914zM844.314 604.186l-117.146 5.862c-6.733 0.333-12.186 6.195-12.186 13.133s5.453 12.211 12.186 11.827l117.146-6.758c6.221-0.358 11.264-5.99 11.264-12.646 0.026-6.605-5.018-11.75-11.264-11.418zM844.314 556.006l-117.146 4.147c-20.224 0.691-36.813-15.642-36.813-36.557s16.589-38.042 36.813-38.323l117.146-1.536c18.637-0.23 33.587 15.565 33.587 35.328s-14.95 36.275-33.587 36.941zM844.314 507.853l-117.146 2.381c-6.733 0.128-12.186 5.862-12.186 12.774s5.453 12.365 12.186 12.211l117.146-3.277c6.221-0.179 11.264-5.683 11.264-12.314 0.026-6.656-5.018-11.93-11.264-11.776zM844.314 459.674l-117.146 0.64c-20.224 0.128-36.813-16.742-36.813-37.632s16.589-37.581 36.813-37.248l117.146 1.946c18.637 0.333 33.587 16.589 33.587 36.326 0 19.763-14.95 35.866-33.587 35.968zM844.314 411.494l-117.146-1.101c-6.733-0.051-12.186 5.504-12.186 12.416s5.453 12.518 12.186 12.518l117.146 0.256c6.221 0 11.264-5.35 11.264-12.006 0.026-6.605-5.018-12.032-11.264-12.083zM296.832 659.942l-117.146-7.603c-18.637-1.203-33.587-18.202-33.587-37.914 0-19.763 14.95-35.123 33.587-34.33l117.146 4.966c20.224 0.87 36.813 18.534 36.813 39.424s-16.589 36.762-36.813 35.456zM296.832 610.048l-117.146-5.862c-6.221-0.333-11.264 4.813-11.264 11.418 0 6.656 5.043 12.288 11.264 12.646l117.146 6.758c6.733 0.384 12.186-4.89 12.186-11.827s-5.478-12.8-12.186-13.133zM296.832 560.154l-117.146-4.147c-18.637-0.64-33.587-17.178-33.587-36.915s14.95-35.558 33.587-35.328l117.146 1.536c20.224 0.282 36.813 17.434 36.813 38.323s-16.589 37.222-36.813 36.531zM296.832 510.234l-117.146-2.381c-6.221-0.154-11.264 5.12-11.264 11.75 0 6.656 5.043 12.16 11.264 12.314l117.146 3.277c6.733 0.179 12.186-5.274 12.186-12.211s-5.478-12.621-12.186-12.749zM296.832 460.314l-117.146-0.64c-18.637-0.102-33.587-16.179-33.587-35.942 0-19.738 14.95-35.994 33.587-36.326l117.146-1.946c20.224-0.333 36.813 16.358 36.813 37.248 0 20.864-16.589 37.734-36.813 37.606zM296.832 410.394l-117.146 1.101c-6.221 0.051-11.264 5.478-11.264 12.109 0 6.656 5.043 12.006 11.264 12.006l117.146-0.256c6.733 0 12.186-5.606 12.186-12.518s-5.478-12.493-12.186-12.442zM640 742.4h-256l-281.6-24.55v-564.25l281.6-25.6h256l281.6 25.6v564.25l-281.6 24.55zM128 696.422l230.4 17.946v-558.336l-230.4 18.816v521.574zM384 153.6v563.2h256v-563.2h-256zM896 174.848l-230.4-18.79v558.31l230.4-17.946v-521.574z" />
<glyph unicode="&#xe629;" d="M332.792 332.815h-102.397v25.599h102.397v-25.599zM332.792 307.216h-102.397v-25.599h102.397v25.599zM332.792 256.017h-102.397v-25.599h102.397v25.599zM332.792 204.819h-102.397v-25.599h102.397v25.599zM563.186 358.415h-102.397v-25.599h102.397v25.599zM563.186 307.216h-102.397v-25.599h102.397v25.599zM563.186 256.017h-102.397v-25.599h102.397v25.599zM563.186 204.819h-102.397v-25.599h102.397v25.599zM793.58 358.415h-102.397v-25.599h102.397v25.599zM793.58 307.216h-102.397v-25.599h102.397v25.599zM793.58 256.017h-102.397v-25.599h102.397v25.599zM793.58 204.819h-102.397v-25.599h102.397v25.599zM844.779 435.213v-409.59h-204.795v409.59h84.299l-169.954 169.954c-8.269-7.347-18.304-12.774-29.542-15.052v-154.902h89.598v-409.59h-204.795v409.59h89.598v154.902c-11.238 2.278-21.299 7.705-29.542 15.052l-169.954-169.954h84.299v-409.59h-204.795v409.59h84.299l190.638 190.638c-3.84 8.192-6.144 17.28-6.144 26.956 0 35.353 28.646 63.998 63.998 63.998s63.998-28.646 63.998-63.998c0-9.677-2.304-18.739-6.144-26.956l190.638-190.638h84.299zM358.391 409.613h-153.596v-358.391h153.596v358.391zM435.189 409.613v-358.391h153.596v358.391h-153.596zM550.386 652.807c0 21.171-17.228 38.399-38.399 38.399s-38.399-17.228-38.399-38.399 17.228-38.399 38.399-38.399 38.399 17.228 38.399 38.399zM819.18 409.613h-153.596v-358.391h153.596v358.391zM682.914 744.248c-25.83 30.156-64.126 49.356-106.929 49.356-14.105 0-27.673-2.125-40.498-5.965-25.651 34.61-66.686 57.163-113.098 57.163-64.971 0-119.523-44.108-135.753-103.933-75.083-10.061-133.040-74.213-133.040-152.060 0-66.84 42.802-123.543 102.397-144.662v27.519c-45.132 19.788-76.798 64.792-76.798 117.143 0 63.742 47.64 118.218 110.845 126.691l17.152 4.096 4.147 14.566c13.593 50.072 59.263 85.041 111.050 85.041 36.761 0 70.475-17.075 92.49-46.821l12.288-13.977 15.641 4.71c10.854 3.251 21.99 4.889 33.177 4.889 33.612 0 65.509-14.72 87.499-40.396l7.705-8.397 10.88-0.538c76.875-2.534 137.11-64.741 137.11-141.616 0-43.673-20.044-82.507-51.199-108.516v-31.922c46.104 29.823 76.798 81.457 76.798 140.438 0 90.596-71.985 164.22-161.865 167.189z" />
<glyph unicode="&#xe62a;" d="M557.887 97.122l45.9-45.9h-270.995v270.995l38.245-38.245 274.092 274.092 71.653-71.653v358.391h-358.391l71.499-71.499-319.992-319.992 18.099-18.099 338.091 338.091-45.9 45.9h270.995v-270.995l-46.053 46.053-274.092-274.092-63.845 63.845v-358.391h358.391l-71.499 71.499 319.992 319.992-18.099 18.099-338.091-338.091z" />
<glyph unicode="&#xe62b;" d="M294.246 289.050c-5.837 0-11.085 3.968-12.467 9.907-0.947 4.045-22.989 100.301-2.79 157.568 20.173 57.139 72.525 90.368 115.456 97.92 21.274 3.763 48.794 45.542 66.995 73.216 7.782 11.802 14.49 21.99 20.275 29.005 4.531 5.478 18.074 22.221 35.789 19.738 16.051-2.227 25.139-18.918 30.592-31.283 5.53-12.544 36.173-75.699 95.667-84.198 20.378-2.918 43.776-3.123 66.432-3.328 46.413-0.41 86.528-0.742 104.781-22.477 25.498-30.362 22.298-71.578 22.144-73.293-0.589-7.040-6.835-12.262-13.798-11.648-7.014 0.563-12.262 6.758-11.699 13.773 0.026 0.333 2.355 32.563-16.256 54.733-10.65 12.672-50.381 13.030-85.402 13.338-23.475 0.205-47.744 0.435-69.811 3.584-56.499 8.038-96.691 56.55-115.533 99.251-6.502 14.797-10.65 16.205-10.701 16.23 0.026 0-3.866-0.256-12.493-10.701-4.915-5.914-11.264-15.59-18.662-26.778-23.066-35.046-51.789-78.669-83.917-84.352-35.61-6.272-79.027-33.843-95.744-81.254-17.741-50.304 3.379-142.336 3.61-143.258 1.613-6.886-2.662-13.747-9.574-15.386-0.973-0.205-1.946-0.307-2.893-0.307zM833.971 305.050c0 7.066-5.734 12.8-12.8 12.8s-12.8-5.734-12.8-12.8c0-106.138-123.622-253.85-245.325-253.85-111.565 0-169.907 67.302-170.496 67.968-4.557 5.402-12.621 6.042-18.022 1.536-5.376-4.557-6.093-12.595-1.562-17.997 2.611-3.149 66.048-77.107 190.080-77.107 136.96 0 270.925 160.026 270.925 279.45zM615.834 205.747c-7.014-0.896-11.981-7.296-11.11-14.31 0-0.102 0.691-8.73-7.578-14.643-7.757-5.606-49.024-5.197-63.59 2.099-3.763 1.894-6.656 6.579-7.706 12.493-1.306 7.398 0.589 15.053 4.838 19.507 4.506 4.787 30.515 5.53 53.606 1.562 6.886-1.459 13.568 3.482 14.771 10.419 1.229 6.938-3.456 13.568-10.394 14.771-13.696 2.432-59.494 8.73-76.518-9.088-5.197-5.453-8.73-12.314-10.675-19.814-1.28-0.179-20.045-2.304-124.595 10.906-114.33 14.413-174.157 71.68-183.91 95.59-10.829 26.598-11.264 73.882-1.331 140.467 9.062 60.518 38.118 177.254 131.2 279.117 74.086 81.075 230.093 78.976 231.373 79.027 6.502-0.154 12.902 5.504 13.056 12.544 0.128 7.091-5.478 12.928-12.544 13.056-6.758 0.102-168.883 2.304-250.778-87.347-97.613-106.906-128.077-229.197-137.549-292.608-10.803-72.218-9.856-122.573 2.918-153.933 14.208-34.867 82.253-95.949 204.39-111.36 43.674-5.504 95.411-11.238 121.011-11.238 2.714 0 4.89 0.128 6.989 0.256 3.149-12.262 10.291-22.144 20.403-27.213 10.24-5.12 30.31-8.55 49.485-8.55 16.384 0 32.077 2.509 40.525 8.55 16.563 11.93 19.123 29.901 18.022 38.656-0.896 7.040-7.475 12.058-14.31 11.085z" />
<glyph unicode="&#xe62c;" d="M511.987 768.004c-84.811 0-153.596-68.785-153.596-153.596s68.785-153.596 153.596-153.596 153.596 68.785 153.596 153.596-68.785 153.596-153.596 153.596zM511.987 484.287c-71.857 0-130.122 58.264-130.122 130.122s58.264 130.122 130.122 130.122 130.122-58.264 130.122-130.122-58.264-130.122-130.122-130.122zM351.761 487.077c-67.531 3.533-121.367 59.416-121.367 128.381 0 69.605 54.731 125.923 123.107 128.56-7.936-9.651-14.95-20.019-20.991-31.052-42.853-11.571-74.597-50.661-74.597-97.534 0-46.36 31.103-85.041 73.24-97.073 5.888-11.085 12.851-21.503 20.607-31.282zM844.779 256.017c0-113.098-148.988-204.795-332.792-204.795s-332.792 91.697-332.792 204.795c0 87.473 89.265 161.916 214.676 191.278 10.598-7.475 21.887-13.977 33.842-19.379-127.050-22.015-222.919-91.748-222.919-171.9 0-97.15 140.668-179.196 307.192-179.196s307.192 82.046 307.192 179.196c0 80.152-95.87 149.884-222.919 171.9 11.955 5.401 23.244 11.904 33.842 19.379 125.411-29.362 214.676-103.805 214.676-191.278zM154.262 264.926c-32.153 31.538-51.864 72.984-51.864 118.551 0 72.753 49.919 135.241 121.418 163.094 3.917-7.782 8.499-15.155 13.644-22.067-64.254-23.295-109.463-77.745-109.463-141.027 0-32.025 11.622-61.746 31.41-86.347-2.842-10.521-4.505-21.273-5.145-32.204zM687.932 518.385c42.137 12.032 73.24 50.712 73.24 97.073 0 46.872-31.743 85.937-74.597 97.534-6.041 11.008-13.056 21.401-20.991 31.026 68.376-2.662 123.107-58.981 123.107-128.56 0-68.965-53.835-124.848-121.367-128.381 7.757 9.779 14.72 20.198 20.607 31.308zM859.678 297.104c19.763 24.601 31.41 54.322 31.41 86.347 0 63.307-45.208 117.757-109.463 141.027 5.145 6.937 9.728 14.31 13.644 22.067 71.499-27.852 121.418-90.34 121.418-163.094 0-45.541-19.712-86.987-51.864-118.551-0.64 10.957-2.33 21.708-5.145 32.204z" />
<glyph unicode="&#xe62d;" d="M512 512c-70.707 0-128-57.293-128-128s57.293-128 128-128 128 57.293 128 128-57.293 128-128 128zM512 281.6c-56.474 0-102.4 45.926-102.4 102.4s45.926 102.4 102.4 102.4 102.4-45.926 102.4-102.4-45.926-102.4-102.4-102.4zM793.6 849.050c-44.774 0-81.050-36.275-81.050-81.050s36.275-81.050 81.050-81.050 81.050 36.275 81.050 81.050-36.275 81.050-81.050 81.050zM793.6 712.55c-30.566 0-55.45 24.883-55.45 55.45s24.883 55.45 55.45 55.45 55.45-24.883 55.45-55.45-24.883-55.45-55.45-55.45zM230.4 849.050c-44.774 0-81.050-36.275-81.050-81.050s36.275-81.050 81.050-81.050 81.050 36.275 81.050 81.050-36.275 81.050-81.050 81.050zM230.4 712.55c-30.566 0-55.45 24.883-55.45 55.45s24.883 55.45 55.45 55.45 55.45-24.883 55.45-55.45-24.883-55.45-55.45-55.45zM640 588.8h-256v25.6h256v-25.6zM806.81 507.93l-82.56-266.24-24.448 7.603 82.509 266.214 24.499-7.578zM250.291 515.507l82.509-266.24-24.448-7.603-82.56 266.24 24.499 7.603zM614.4 230.4h-204.8c-56.55 0-102.4-45.85-102.4-102.4v-102.4h409.6v102.4c0 56.55-45.85 102.4-102.4 102.4zM691.2 51.2h-358.4v76.8c0 42.342 34.458 76.8 76.8 76.8h204.8c42.342 0 76.8-34.458 76.8-76.8v-76.8zM281.6 665.6h-102.4c-42.419 0-76.8-34.381-76.8-76.8v-51.2h256v51.2c0 42.419-34.381 76.8-76.8 76.8zM332.8 563.2h-204.8v25.6c0 28.237 22.963 51.2 51.2 51.2h102.4c28.237 0 51.2-22.963 51.2-51.2v-25.6zM844.8 665.6h-102.4c-42.419 0-76.8-34.381-76.8-76.8v-51.2h256v51.2c0 42.419-34.381 76.8-76.8 76.8zM896 563.2h-204.8v25.6c0 28.237 22.963 51.2 51.2 51.2h102.4c28.237 0 51.2-22.963 51.2-51.2v-25.6z" />
<glyph unicode="&#xe62e;" d="M639.984 537.61c-70.705 0-127.997-57.291-127.997-127.997s57.291-127.997 127.997-127.997 127.997 57.291 127.997 127.997-57.291 127.997-127.997 127.997zM639.984 307.216c-56.549 0-102.397 45.848-102.397 102.397s45.848 102.397 102.397 102.397 102.397-45.848 102.397-102.397-45.848-102.397-102.397-102.397zM281.593 307.216c-42.393 0-76.798-34.406-76.798-76.798s34.406-76.798 76.798-76.798 76.798 34.406 76.798 76.798-34.406 76.798-76.798 76.798zM281.593 179.219c-28.262 0-51.199 22.937-51.199 51.199s22.937 51.199 51.199 51.199 51.199-22.937 51.199-51.199-22.937-51.199-51.199-51.199zM870.378 614.408h-383.99c-28.262 0-51.199-22.937-51.199-51.199v-383.99c0-28.262 22.937-51.199 51.199-51.199h383.99c28.262 0 51.199 22.937 51.199 51.199v383.99c0 28.262-22.937 51.199-51.199 51.199zM895.978 179.219c0-14.131-11.469-25.599-25.599-25.599h-383.99c-14.131 0-25.599 11.469-25.599 25.599v383.99c0 14.131 11.469 25.599 25.599 25.599h383.99c14.131 0 25.599-11.469 25.599-25.599v-383.99zM358.391 358.415h-204.795c-28.262 0-51.199-22.937-51.199-51.199v-204.795c0-28.262 22.937-51.199 51.199-51.199h204.795c28.262 0 51.199 22.937 51.199 51.199v204.795c0 28.262-22.937 51.199-51.199 51.199zM383.99 102.421c0-14.131-11.469-25.599-25.599-25.599h-204.795c-14.131 0-25.599 11.469-25.599 25.599v204.795c0 14.131 11.469 25.599 25.599 25.599h204.795c14.131 0 25.599-11.469 25.599-25.599v-204.795zM409.59 384.014h-153.596c-28.262 0-51.199 22.937-51.199 51.199v332.792c0 28.262 22.937 51.199 51.199 51.199h332.792c28.262 0 51.199-22.937 51.199-51.199v-127.997h-25.599v127.997c0 14.131-11.469 25.599-25.599 25.599h-332.792c-14.131 0-25.599-11.469-25.599-25.599v-332.792c0-14.131 11.469-25.599 25.599-25.599h153.596v-25.599z" />
<glyph unicode="&#xe62f;" d="M512 179.2c-28.262 0-51.2-22.938-51.2-51.2s22.938-51.2 51.2-51.2 51.2 22.938 51.2 51.2-22.938 51.2-51.2 51.2zM512 102.4c-14.131 0-25.6 11.469-25.6 25.6s11.469 25.6 25.6 25.6 25.6-11.469 25.6-25.6-11.469-25.6-25.6-25.6zM407.245 273.178c29.491 21.325 65.587 34.022 104.755 34.022 40.294 0 77.338-13.44 107.29-35.891l-14.874-20.838c-25.728 19.456-57.677 31.13-92.416 31.13-33.536 0-64.435-10.854-89.677-29.082l-15.078 20.659zM331.827 376.474c50.611 36.787 112.742 58.726 180.173 58.726 68.019 0 130.662-22.349 181.555-59.75l-14.541-20.403c-46.771 34.483-104.397 55.066-166.989 55.066-61.875 0-118.938-20.122-165.402-53.862l-14.797 20.224zM256.435 479.718c71.782 52.275 159.923 83.482 255.565 83.482 95.744 0 183.962-31.283 255.795-83.635l-14.848-20.813c-67.635 49.382-150.758 78.848-240.947 78.848-90.010 0-172.928-29.338-240.512-78.515l-15.053 20.634zM180.736 583.398c92.954 67.738 207.386 107.802 331.264 107.802 123.443 0 237.517-39.808 330.317-107.136l-16.051-22.502c-88.346 64.154-196.71 102.426-314.266 102.426-117.862 0-226.509-38.477-314.982-102.938l-16.282 22.349zM105.242 686.746c114.125 83.226 254.669 132.454 406.758 132.454 151.168 0 290.867-48.64 404.634-130.918l-15.77-22.144c-109.338 79.104-243.584 125.85-388.864 125.85-146.099 0-281.062-47.283-390.707-127.206l-16.051 21.965z" />
<glyph unicode="&#xe630;" d="M102.4 691.2v-512h819.2v512h-819.2zM896 204.8h-768v460.8h768v-460.8zM512 341.76l-315.392 262.784 16.41 19.712 298.982-249.216 299.008 249.19 16.41-19.712-315.418-262.758zM392.090 388.608l-179.098-149.248-16.41 19.712 175.309 146.048 20.198-16.512zM652.109 405.094l175.309-146.048-16.41-19.712-179.098 149.248 20.198 16.512z" />
<glyph unicode="&#xe631;" d="M812.314 195.84c-72.653-91.085-182.784-144.64-300.314-144.64-204.314 0-358.4 165.069-358.4 384s154.086 384 358.4 384c261.12 0 358.4-188.416 358.4-307.2 0-127.002-27.059-190.208-109.901-253.875-19.482-14.182-38.938-18.842-53.914-18.842-10.598 0-66.381 0-66.381 87.091h129.971c0 57.165-6.912 129.536-75.136 129.536-39.654 0-83.43-32.256-83.43-120.755 0-23.526 0-120.781 92.186-120.781 25.907 0 46.72 6.63 62.234 16.435l4.122 2.483c100.531 75.059 125.85 151.654 125.85 278.707 0 128-102.4 332.8-384 332.8-226.202 0-384-183.398-384-409.6s157.773-409.6 384-409.6c141.389 0 266.061 71.654 339.661 180.608l-22.17 13.21-17.178-23.578zM693.683 431.027c21.658 0 47.923-17.536 47.923-79.744h-101.402c0 30.413 17.050 79.744 53.478 79.744zM322.432 217.6v45.184h35.968v-45.184h-35.968zM565.171 217.6c-0.922 20.275-1.818 41.037-1.818 77.901v267.802h-26.778v-141.056h-0.922c-11.981 21.683-29.491 33.638-59.443 33.638-59.008 0-77.901-67.302-77.901-112 0-32.717 2.765-129.536 79.283-129.536 29.491 0 44.262 13.363 61.773 35.507h0.922v-32.256h24.883zM480.358 239.283c-53.478 0-53.478 76.493-53.478 95.872 0 54.374 13.824 95.872 53.914 95.872 57.626 0 57.626-67.302 57.626-98.662 0.026-47.949-12.442-93.082-58.061-93.082z" />
<glyph unicode="&#xe632;" d="M819.2 435.2v-332.8h204.8v332.8h-204.8zM921.6 115.2c-7.066 0-12.8 5.734-12.8 12.8s5.734 12.8 12.8 12.8 12.8-5.734 12.8-12.8-5.734-12.8-12.8-12.8zM998.4 153.6h-153.6v256h153.6v-256zM0 614.4v-512h332.8v512h-332.8zM153.6 115.2c-7.066 0-12.8 5.734-12.8 12.8s5.734 12.8 12.8 12.8 12.8-5.734 12.8-12.8-5.734-12.8-12.8-12.8zM307.2 153.6h-281.6v409.6h281.6v-409.6zM921.6 768v-307.2h-25.6v281.6h-665.6v-102.4h-25.6v128h716.8zM358.4 384h435.2v-76.8h-179.2v-51.2h179.2v-25.6h-435.2v25.6h153.6v51.2h-153.6v76.8z" />
<glyph unicode="&#xe633;" d="M819.2 435.2v-332.8h204.8v332.8h-204.8zM921.6 115.2c-7.066 0-12.8 5.734-12.8 12.8s5.734 12.8 12.8 12.8 12.8-5.734 12.8-12.8-5.734-12.8-12.8-12.8zM998.4 153.6h-153.6v256h153.6v-256zM0 614.4v-512h332.8v512h-332.8zM153.6 115.2c-7.066 0-12.8 5.734-12.8 12.8s5.734 12.8 12.8 12.8 12.8-5.734 12.8-12.8-5.734-12.8-12.8-12.8zM307.2 153.6h-281.6v409.6h281.6v-409.6zM921.6 768v-307.2h-25.6v281.6h-665.6v-102.4h-25.6v128h716.8zM358.4 384h435.2v-76.8h-179.2v-51.2h179.2v-25.6h-435.2v25.6h153.6v51.2h-153.6v76.8zM768 640c0-14.157-11.469-25.6-25.6-25.6-0.87 0-1.613 0.41-2.432 0.512l-50.381-69.274c0.845-2.586 1.613-5.197 1.613-8.038 0-14.157-11.469-25.6-25.6-25.6-13.21 0-23.706 10.138-25.062 22.963l-91.213 57.037c-3.558-1.869-7.45-3.2-11.725-3.2-2.202 0-4.198 0.717-6.246 1.254l-97.434-97.408c0.563-2.048 1.28-4.019 1.28-6.246 0-14.157-11.469-25.6-25.6-25.6s-25.6 11.443-25.6 25.6 11.469 25.6 25.6 25.6c2.202 0 4.198-0.717 6.246-1.254l97.434 97.408c-0.563 2.048-1.28 4.019-1.28 6.246 0 14.157 11.469 25.6 25.6 25.6s25.6-11.443 25.6-25.6c0-0.282-0.154-0.538-0.154-0.794l88.397-55.245c4.096 2.816 8.806 4.838 14.157 4.838 1.587 0 2.97-0.614 4.454-0.896l48.998 67.379c-1.408 3.149-2.253 6.605-2.253 10.317 0 14.157 11.469 25.6 25.6 25.6s25.6-11.443 25.6-25.6z" />
</font>
</defs>
</svg>
